<?xml version="1.0" encoding="utf-8"?>
<!-- Generator: Adobe Illustrator 15.0.2, SVG Export Plug-In . SVG Version: 6.00 Build 0)  -->
<!DOCTYPE svg PUBLIC "-//W3C//DTD SVG 1.1//EN" "http://www.w3.org/Graphics/SVG/1.1/DTD/svg11.dtd">
<svg version="1.1" id="Layer_1" xmlns="http://www.w3.org/2000/svg" xmlns:xlink="http://www.w3.org/1999/xlink" x="0px" y="0px"
	 width="364px" height="286px" viewBox="0 0 364 286" enable-background="new 0 0 364 286" xml:space="preserve">
<g>
	<g>
		<g>
			<g>
				<polygon fill="#FFAE01" points="256.156,176.291 215.875,176.291 199.288,205.029 219.43,239.926 				"/>
			</g>
		</g>
	</g>
</g>
<g>
	<g>
		<path fill="#F2F2F2" d="M35.371,39.77C17.2,39.77,2.416,54.553,2.416,72.725S17.2,105.68,35.371,105.68
			c18.172,0,32.955-14.783,32.955-32.955C68.326,54.553,53.542,39.77,35.371,39.77z"/>
	</g>
</g>
<g>
	<g>
		<path fill="#F2F2F2" d="M113.208,39.77c-18.171,0-32.955,14.783-32.955,32.955h4.546h4.545h47.729h4.545h4.546
			C146.163,54.553,131.379,39.77,113.208,39.77z"/>
	</g>
</g>
<g>
	<g>
		<path fill="#F2F2F2" d="M250.375,39.77c-18.171,0-32.954,14.783-32.954,32.955s14.783,32.955,32.954,32.955
			s32.954-14.783,32.954-32.955S268.546,39.77,250.375,39.77z"/>
	</g>
</g>
<g>
	<g>
		<path fill="#F2F2F2" d="M250.375,105.475c-18.171,0-32.954,14.783-32.954,32.953c0,18.172,14.783,32.955,32.954,32.955
			s32.954-14.783,32.954-32.955C283.329,120.258,268.546,105.475,250.375,105.475z"/>
	</g>
</g>
<g>
	<g>
		<path fill="#F2F2F2" d="M320.938,39.77c-18.171,0-32.953,14.783-32.953,32.955v31.818h65.906V72.725
			C353.892,54.553,339.109,39.77,320.938,39.77z"/>
	</g>
</g>
<g>
	<g>
		<rect x="189" y="39.77" fill="#F2F2F2" width="23.863" height="64.773"/>
	</g>
</g>
<g>
	<g>
		<rect x="82.445" y="126.496" fill="#F2F2F2" width="64.205" height="23.863"/>
	</g>
</g>
<g>
	<g>
		<path fill="#F2F2F2" d="M43.894,175.154c-18.171,0-32.955,14.783-32.955,32.953c0,18.172,14.784,32.955,32.955,32.955
			c18.172,0,32.955-14.783,32.955-32.955C76.849,189.938,62.066,175.154,43.894,175.154z"/>
	</g>
</g>
<g>
	<g>
		<path fill="#F2F2F2" d="M283.366,175.154c-18.171,0-32.954,14.783-32.954,32.953h4.545h4.545h47.725h4.549h4.545
			C316.319,189.938,301.537,175.154,283.366,175.154z"/>
	</g>
</g>
<g>
	<g>
		<path fill="#F2F2F2" d="M114.441,175.154c-18.172,0-32.955,14.783-32.955,32.953c0,18.172,14.783,32.955,32.955,32.955
			c18.171,0,32.955-14.783,32.955-32.955C147.396,189.938,132.612,175.154,114.441,175.154z"/>
	</g>
</g>
<g>
	<g>
		<path fill="#F2F2F2" d="M150.75,72.725v9.09v11.932v11.934c18.171,0,32.955-14.783,32.955-32.955v-9.092V51.701V39.77
			C165.533,39.77,150.75,54.553,150.75,72.725z"/>
	</g>
</g>
<g>
	<g>
		<path fill="#F2F2F2" d="M320.953,208.107v31.815h11.931h11.934h9.09v-40.905v-11.934V175.15
			C335.736,175.154,320.953,189.938,320.953,208.107z"/>
	</g>
</g>
<g>
	<g>
		<polygon fill="#F2F2F2" points="215.875,176.291 179.147,239.926 142.418,176.291 		"/>
	</g>
</g>
<g>
	<g>
		<rect x="51.848" y="3" fill="#FFAE01" width="23.864" height="101.543"/>
	</g>
</g>
<g>
	<g>
		<rect x="3.553" y="176.291" fill="#FFAE01" width="23.863" height="101.537"/>
	</g>
</g>
<g>
	<g>
		
			<rect x="241.933" y="30.077" transform="matrix(-0.902 -0.4318 0.4318 -0.902 447.1983 266.6288)" fill="#FFAE01" width="23.864" height="104.951"/>
	</g>
</g>
<g>
	<g>
		<rect x="102.616" y="106.326" fill="#FFAE01" width="23.864" height="64.205"/>
	</g>
</g>
</svg>
